# ProBuilder 4.5.2
# https://unity3d.com/unity/features/worldbuilding/probuilder
# 10/7/2021 3:05:22 PM

mtllib ./test_fish.mtl
o test fish

g Cube (11)
v -0.2857609 0.6339836 1.338394
v -0.7142391 0.6339836 1.338394
v -0.2857609 1 1.338394
v -0.7142391 1 1.338394
v -2.562056 0.7508435 -0.299772
v -2.562056 0.7508435 -1.295929
v -2.562056 0.8831401 -0.299772
v -2.562056 0.8831401 -1.295929
v -0.5978508 0.710464 -3.408725
v -0.4021492 0.710464 -3.408725
v -0.5978508 0.9235196 -3.408725
v -0.4021492 0.9235196 -3.408725
v 1.562056 0.7508435 -1.295929
v 1.562056 0.7508435 -0.299772
v 1.562056 0.8831401 -1.295929
v 1.562056 0.8831401 -0.299772
v 0 1 0.1118546
v -1 1 0.1118546
v 0 1 -1.989247
v -1 1 -1.989247
v 0 0.6339836 -1.989247
v -1 0.6339836 -1.989247
v 0 0.6339836 0.1118546
v -1 0.6339836 0.1118546
v 0.7010269 0.6339836 -1.478301
v 0.7010269 0.6339836 -0.1173997
v 0.7010269 1 -1.478301
v 0.7010269 1 -0.1173997
v -1.701027 0.6339836 -0.1173997
v -1.701027 0.6339836 -1.478301
v -1.701027 1 -0.1173997
v -1.701027 1 -1.478301

vt -0.2857609 0.6339836
vt -0.7142391 0.6339836
vt -0.2857609 1
vt -0.7142391 1
vt -0.299772 0.7508435
vt -1.295929 0.7508435
vt -0.299772 0.8831401
vt -1.295929 0.8831401
vt 0.5978508 0.710464
vt 0.4021492 0.710464
vt 0.5978508 0.9235196
vt 0.4021492 0.9235196
vt 1.295929 0.7508435
vt 0.299772 0.7508435
vt 1.295929 0.8831401
vt 0.299772 0.8831401
vt 0 0.1118546
vt 1 0.1118546
vt 0 -1.989247
vt 1 -1.989247
vt -1 -1.989247
vt -1 0.1118546
vt -0.2857609 1.338394
vt -0.7142391 1.338394
vt -0.1089371 1
vt -0.1089371 0.6339836
vt -1.368325 1
vt -1.368325 0.6339836
vt -0.1179674 0.6339836
vt -0.1179674 1
vt 1.141421 0.6339836
vt 1.141421 1
vt 0.7142391 1.338394
vt 0.2857609 1.338394
vt 0.7010269 -1.478301
vt 0.7010269 -0.1173997
vt 1.17168 1
vt 1.17168 0.6339836
vt 0.3042099 1
vt 0.3042099 0.6339836
vt -0.03476747 0.6339836
vt -0.03476747 1
vt 0.7027936 0.6339836
vt 0.7027936 1
vt -0.7010269 -0.1173997
vt -0.7010269 -1.478301
vt -1.701027 -0.1173997
vt -1.701027 -1.478301
vt -0.9156989 1
vt -0.9156989 0.6339836
vt -1.65326 1
vt -1.65326 0.6339836
vt -0.3635519 0.6339836
vt -0.3635519 1
vt 0.5039182 0.6339836
vt 0.5039182 1
vt 1.701027 -1.478301
vt 1.701027 -0.1173997
vt 0.7799217 -1.478301
vt 0.7799217 -0.1173997
vt 1.648844 -1.295929
vt 1.648844 -0.299772
vt -0.379493 1
vt -0.379493 0.6339836
vt -1.259624 0.8831401
vt -1.259624 0.7508435
vt 0.7101386 0.6339836
vt 0.7101386 1
vt 1.590269 0.7508435
vt 1.590269 0.8831401
vt -0.56017 -0.1173997
vt -0.56017 -1.478301
vt -1.429093 -0.299772
vt -1.429093 -1.295929
vt -1.770837 -0.1173997
vt -1.770837 -1.478301
vt -2.63976 -0.299772
vt -2.63976 -1.295929
vt -1.688435 1
vt -1.688435 0.6339836
vt -2.568566 0.8831401
vt -2.568566 0.7508435
vt 1.35779 0.6339836
vt 1.35779 1
vt 2.23792 0.7508435
vt 2.23792 0.8831401
vt 1.551085 -1.478301
vt 1.551085 -0.1173997
vt 2.420008 -1.295929
vt 2.420008 -0.299772
vt -1 -2.020475
vt 0 -2.020475
vt -0.5978508 -3.442012
vt -0.4021492 -3.442012
vt -1.641341 1
vt -1.641341 0.6339836
vt -3.116686 0.9235196
vt -3.116686 0.710464
vt 1.913921 0.6339836
vt 1.913921 1
vt 3.389266 0.710464
vt 3.389266 0.9235196
vt 0 -1.932565
vt 1 -1.932565
vt 0.4021492 -3.354102
vt 0.5978508 -3.354102

vn 0 0 1
vn -1 0 0
vn 0 0 -1
vn 1 0 0
vn 0 1 0
vn 0 -1 0
vn 0.973917 0 0.2269045
vn -0.973917 0 0.2269045
vn 0.5890068 0 -0.8081281
vn 0.3108275 0 0.9504664
vn -0.3108275 0 0.9504664
vn -0.5890068 0 -0.8081281
vn 0.1344883 -0.9909152 0
vn 0.2072102 0 -0.9782965
vn 0.2072105 0 0.9782964
vn 0.1344883 0.9909152 0
vn -0.1344883 -0.9909152 0
vn -0.2072105 0 0.9782964
vn -0.2072102 0 -0.9782965
vn -0.1344883 0.9909152 0
vn 0 -0.9985517 -0.05380118
vn -0.9621332 0 -0.2725798
vn 0.9621332 0 -0.2725798
vn 0 0.9985517 -0.05380118

usemtl ProBuilderDefault
f 3/3/1 4/4/1 2/2/1 1/1/1
f 7/7/2 8/8/2 6/6/2 5/5/2
f 11/11/3 12/12/3 10/10/3 9/9/3
f 15/15/4 16/16/4 14/14/4 13/13/4
f 19/19/5 20/20/5 18/18/5 17/17/5
f 23/17/6 24/22/6 22/21/6 21/19/6
f 1/23/6 2/24/6 24/22/6 23/17/6
f 3/27/7 1/28/7 23/26/7 17/25/7
f 2/31/8 4/32/8 18/30/8 24/29/8
f 4/33/5 3/34/5 17/17/5 18/18/5
f 25/35/6 26/36/6 23/17/6 21/19/6
f 27/39/9 25/40/9 21/38/9 19/37/9
f 26/43/10 28/44/10 17/42/10 23/41/10
f 28/45/5 27/46/5 19/19/5 17/17/5
f 29/47/6 30/48/6 22/21/6 24/22/6
f 31/51/11 29/52/11 24/50/11 18/49/11
f 30/55/12 32/56/12 20/54/12 22/53/12
f 32/57/5 31/58/5 18/18/5 20/20/5
f 13/61/13 14/62/13 26/60/13 25/59/13
f 15/65/14 13/66/14 25/64/14 27/63/14
f 14/69/15 16/70/15 28/68/15 26/67/15
f 16/73/16 15/74/16 27/72/16 28/71/16
f 5/77/17 6/78/17 30/76/17 29/75/17
f 7/81/18 5/82/18 29/80/18 31/79/18
f 6/85/19 8/86/19 32/84/19 30/83/19
f 8/89/20 7/90/20 31/88/20 32/87/20
f 9/93/21 10/94/21 21/92/21 22/91/21
f 11/97/22 9/98/22 22/96/22 20/95/22
f 10/101/23 12/102/23 19/100/23 21/99/23
f 12/105/24 11/106/24 20/104/24 19/103/24

